# xmcd
#
# Track frame offsets: 
#        150
#        12202
#        29560
#        48495
#        70647
#        83270
#        101165
#        112957
#        120680
#        130135
#        142785
#        153790
#
# Disc length: 2290 seconds
#
# Revision: 0
# Processed by: cddbd v1.5.2PL0 Copyright (c) Steve Scherf et al.
# Submitted via: ExactAudioCopy v0.95b4
#
DISCID=8c08f00c
DTITLE=M. Ward - Post-war
DYEAR=2006
DGENRE=Indie
TTITLE0=Poison Cup
TTITLE1=To Go Home
TTITLE2=Right in the Head
TTITLE3=Post-war
TTITLE4=Requiem
TTITLE5=Chinese Translation
TTITLE6=Eyes on the Prize
TTITLE7=Magic Trick
TTITLE8=Neptune's Net
TTITLE9=Rollercoaster
TTITLE10=Today's Understanding
TTITLE11=Afterword-Rag
EXTD=
EXTT0=
EXTT1=
EXTT2=
EXTT3=
EXTT4=
EXTT5=
EXTT6=
EXTT7=
EXTT8=
EXTT9=
EXTT10=
EXTT11=
PLAYORDER=
